<svg width="19" height="26" viewBox="0 0 19 26" fill="none" xmlns="http://www.w3.org/2000/svg">
<g id="Group 123">
<path id="Vector" d="M17.6212 22.3969C17.179 21.3496 16.5374 20.3984 15.7321 19.5961C14.9292 18.7915 13.9781 18.15 12.9313 17.707C12.9219 17.7023 12.9126 17.7 12.9032 17.6953C14.3633 16.6406 15.3126 14.9227 15.3126 12.9844C15.3126 9.77344 12.711 7.17188 9.50006 7.17188C6.28912 7.17188 3.68756 9.77344 3.68756 12.9844C3.68756 14.9227 4.63678 16.6406 6.09693 17.6977C6.08756 17.7023 6.07818 17.7047 6.06881 17.7094C5.01881 18.1523 4.07662 18.7875 3.26803 19.5984C2.46344 20.4013 1.82194 21.3524 1.37896 22.3992C0.943782 23.424 0.709079 24.5228 0.687559 25.6359C0.686933 25.661 0.691321 25.6858 0.700463 25.7091C0.709605 25.7324 0.723317 25.7537 0.740791 25.7716C0.758264 25.7895 0.779146 25.8037 0.802206 25.8134C0.825265 25.8231 0.850036 25.8281 0.875059 25.8281H2.28131C2.38443 25.8281 2.46646 25.7461 2.46881 25.6453C2.51568 23.8359 3.24225 22.1414 4.52662 20.857C5.85553 19.5281 7.62037 18.7969 9.50006 18.7969C11.3797 18.7969 13.1446 19.5281 14.4735 20.857C15.7579 22.1414 16.4844 23.8359 16.5313 25.6453C16.5337 25.7484 16.6157 25.8281 16.7188 25.8281H18.1251C18.1501 25.8281 18.1749 25.8231 18.1979 25.8134C18.221 25.8037 18.2419 25.7895 18.2593 25.7716C18.2768 25.7537 18.2905 25.7324 18.2997 25.7091C18.3088 25.6858 18.3132 25.661 18.3126 25.6359C18.2891 24.5156 18.0571 23.4258 17.6212 22.3969ZM9.50006 17.0156C8.42428 17.0156 7.41178 16.5961 6.65006 15.8344C5.88834 15.0727 5.46881 14.0602 5.46881 12.9844C5.46881 11.9086 5.88834 10.8961 6.65006 10.1344C7.41178 9.37266 8.42428 8.95312 9.50006 8.95312C10.5758 8.95312 11.5883 9.37266 12.3501 10.1344C13.1118 10.8961 13.5313 11.9086 13.5313 12.9844C13.5313 14.0602 13.1118 15.0727 12.3501 15.8344C11.5883 16.5961 10.5758 17.0156 9.50006 17.0156Z" fill="white"/>
</g>
</svg>
