<svg width="30" height="30" viewBox="0 0 30 30" fill="none" xmlns="http://www.w3.org/2000/svg">
<path d="M14.5313 4.26172C8.57754 4.26172 3.75 9.08926 3.75 15.043C3.75 20.9967 8.57754 25.8242 14.5313 25.8242C20.485 25.8242 25.3125 20.9967 25.3125 15.043C25.3125 9.08926 20.485 4.26172 14.5313 4.26172Z" stroke="#BE9E67" stroke-width="2" stroke-miterlimit="10"/>
<path d="M12.8906 12.8906H14.7656V19.6875" stroke="#BE9E67" stroke-width="2" stroke-linecap="round" stroke-linejoin="round"/>
<path d="M12.2734 19.7725H17.4297" stroke="#BE9E67" stroke-width="2" stroke-miterlimit="10" stroke-linecap="round"/>
<path d="M14.5313 7.61719C14.2299 7.61719 13.9354 7.70654 13.6849 7.87393C13.4343 8.04133 13.2391 8.27926 13.1238 8.55763C13.0085 8.836 12.9783 9.14231 13.0371 9.43783C13.0959 9.73335 13.241 10.0048 13.454 10.2179C13.6671 10.4309 13.9385 10.576 14.234 10.6348C14.5296 10.6936 14.8359 10.6634 15.1142 10.5481C15.3926 10.4328 15.6305 10.2375 15.7979 9.987C15.9653 9.73647 16.0547 9.44193 16.0547 9.14062C16.0547 8.73658 15.8942 8.34909 15.6085 8.06339C15.3228 7.77769 14.9353 7.61719 14.5313 7.61719Z" fill="#BE9E67"/>
</svg>
