<svg width="7" height="21" viewBox="0 0 7 21" fill="none" xmlns="http://www.w3.org/2000/svg">
<path d="M6.90235 4.06039C6.90231 3.42053 6.72196 2.79364 6.38196 2.2516C6.04196 1.70956 5.55608 1.27431 4.98004 0.995758C4.404 0.717212 3.76112 0.606646 3.12512 0.676741C2.48911 0.746835 1.88574 0.994751 1.38419 1.39206C0.882632 1.78937 0.503203 2.31999 0.289408 2.92307C0.0756126 3.52614 0.0361079 4.17727 0.175423 4.80177C0.314738 5.42627 0.627233 5.99887 1.07707 6.4539C1.52691 6.90893 2.09589 7.22798 2.71875 7.37445V19.0311L3.49805 20.3436L4.27734 19.0311V7.37445C5.0234 7.19691 5.688 6.77348 6.16417 6.17233C6.64033 5.57117 6.90034 4.82727 6.90235 4.06039ZM4.48242 3.81429C4.31207 3.81429 4.14554 3.76378 4.0039 3.66913C3.86225 3.57449 3.75185 3.43997 3.68666 3.28258C3.62147 3.12519 3.60441 2.95201 3.63764 2.78493C3.67088 2.61785 3.75291 2.46437 3.87337 2.34391C3.99383 2.22345 4.14731 2.14142 4.31439 2.10819C4.48147 2.07495 4.65465 2.09201 4.81204 2.1572C4.96943 2.22239 5.10395 2.33279 5.19859 2.47444C5.29324 2.61608 5.34375 2.78261 5.34375 2.95296C5.34375 3.1814 5.253 3.40049 5.09147 3.56202C4.92994 3.72355 4.71086 3.81429 4.48242 3.81429Z" fill="#BE9E67"/>
</svg>
