<svg width="17" height="22" viewBox="0 0 17 22" fill="none" xmlns="http://www.w3.org/2000/svg">
<path d="M11.5 5.84375C11.5 5.84375 12.6419 5.28125 8.5 5.28125C7.01664 5.28125 5.5666 5.72112 4.33323 6.54523C3.09986 7.36934 2.13856 8.54068 1.57091 9.91112C1.00325 11.2816 0.854725 12.7896 1.14411 14.2444C1.4335 15.6993 2.14781 17.0357 3.1967 18.0846C4.2456 19.1334 5.58197 19.8478 7.03683 20.1371C8.49168 20.4265 9.99968 20.278 11.3701 19.7103C12.7406 19.1427 13.9119 18.1814 14.736 16.948C15.5601 15.7147 16 14.2646 16 12.7812" stroke="#BE9E67" stroke-width="2" stroke-miterlimit="10" stroke-linecap="round"/>
<path d="M8.5 1.71875L12.25 5.46875L8.5 9.21875" stroke="#BE9E67" stroke-width="2" stroke-linecap="round" stroke-linejoin="round"/>
</svg>
